<?xml version="1.0" encoding="utf-8"?>
<!-- Generator: Adobe Illustrator 24.2.1, SVG Export Plug-In . SVG Version: 6.00 Build 0)  -->
<svg version="1.1" id="Layer_1" xmlns="http://www.w3.org/2000/svg" xmlns:xlink="http://www.w3.org/1999/xlink" x="0px" y="0px"
	 viewBox="0 0 25.8 23.9" style="enable-background:new 0 0 25.8 23.9;" xml:space="preserve">
<style type="text/css">
	.st0{fill:#E8E8E8;stroke:#22948F;stroke-width:2;stroke-miterlimit:10;}
</style>
<path class="st0" d="M11.3,12.6v10.3H1v-9c-0.1-2.4,0.2-4.7,0.7-7c0.5-1.7,1.5-3.1,3-4.1C6.7,1.6,9,1,11.3,1v4.3
	c-3.3,0.5-5,2.6-5,6.2v1H11.3z M24.8,12.6v10.3H14.6v-9c-0.1-2.4,0.2-4.7,0.7-7c0.5-1.7,1.5-3.2,3-4.1c2-1.2,4.3-1.8,6.6-1.8v4.3
	c-3.3,0.5-5,2.6-5,6.2c0,0.2,0,0.6,0,1H24.8z"/>
<path class="st0" d="M9.4-33.4c-0.5,1.7-1.5,3.1-3,4.1"/>
</svg>
